<?xml version="1.0" encoding="iso-8859-1"?>
<!-- Generator: Adobe Illustrator 19.0.0, SVG Export Plug-In . SVG Version: 6.00 Build 0)  -->
<svg version="1.1" id="Layer_1" xmlns="http://www.w3.org/2000/svg" xmlns:xlink="http://www.w3.org/1999/xlink" x="0px" y="0px"
	 viewBox="0 0 512.005 512.005" style="enable-background:new 0 0 512.005 512.005;" xml:space="preserve">
<rect x="0.007" y="66.507" style="fill:#CCCCCC;" width="511.993" height="378.994"/>
<polygon style="fill:#E6E6E6;" points="512,66.504 512,445.498 194.232,445.498 300.494,66.504 "/>
<rect x="0.007" y="66.507" style="fill:#F9C573;" width="511.993" height="57.15"/>
<polygon style="fill:#FCD8A9;" points="512,66.504 512,123.655 284.467,123.655 300.494,66.504 "/>
<rect y="118.066" style="fill:#B3B3B3;" width="512.005" height="11.182"/>
<circle style="fill:#F94B54;" cx="31.308" cy="96.324" r="9.318"/>
<circle style="fill:#61BCE0;" cx="91.565" cy="96.324" r="9.318"/>
<circle style="fill:#F2F2F2;" cx="61.437" cy="96.324" r="9.318"/>
<path style="fill:#61BCE0;" d="M188.855,445.494V334.655c27.036-11.582,45.98-38.424,45.98-69.697
	c0-30.849-18.44-57.373-44.888-69.204v60.745l-30.908,18.291l-30.908-18.291v-60.745c-26.448,11.831-44.888,38.357-44.888,69.204
	c0,31.274,18.944,58.117,45.98,69.697v110.839"/>
<polyline style="fill:#F9C573;" points="329.999,445.492 329.999,275.194 384.04,275.194 384.04,445.492 "/>
<path style="fill:#F94B54;" d="M317.886,208.108c0,27.273-22.11,49.383-49.383,49.383v28.883h160.261v-78.267H317.886V208.108z"/>
<g>
</g>
<g>
</g>
<g>
</g>
<g>
</g>
<g>
</g>
<g>
</g>
<g>
</g>
<g>
</g>
<g>
</g>
<g>
</g>
<g>
</g>
<g>
</g>
<g>
</g>
<g>
</g>
<g>
</g>
</svg>
