<?xml version="1.0" encoding="iso-8859-1"?>
<!-- Generator: Adobe Illustrator 19.0.0, SVG Export Plug-In . SVG Version: 6.00 Build 0)  -->
<svg version="1.1" id="Layer_1" xmlns="http://www.w3.org/2000/svg" xmlns:xlink="http://www.w3.org/1999/xlink" x="0px" y="0px"
	 viewBox="0 0 512 512" style="enable-background:new 0 0 512 512;" xml:space="preserve">
<polygon style="fill:#CCCCCC;" points="303.995,473.732 207.993,473.732 216.031,440.249 223.797,407.946 288.203,407.946 
	295.956,440.249 "/>
<polygon style="fill:#999999;" points="295.956,440.249 216.031,440.249 223.797,407.946 249.925,375.918 288.203,407.946 "/>
<path style="fill:#CCCCCC;" d="M512,62.829v311.238c0,18.711-15.17,33.881-33.881,33.881H33.881C15.17,407.946,0,392.778,0,374.067
	V62.829c0-18.711,15.17-33.881,33.881-33.881h444.239C496.83,28.947,512,44.118,512,62.829z"/>
<path style="fill:#E6E6E6;" d="M512,62.829v311.238c0,18.711-15.17,33.881-33.881,33.881H205.943L312.207,28.948h165.912
	C496.83,28.947,512,44.118,512,62.829z"/>
<rect y="75.427" style="fill:#9BD7F4;" width="512" height="286.042"/>
<path style="fill:#666666;" d="M363.121,233.933v-30.986l-26.004-1.715c-2.125-9.989-6.063-19.307-11.443-27.582l17.183-19.618
	l-21.916-21.916l-19.605,17.195c-6.212-4.038-12.996-7.256-20.214-9.505c-2.41-0.77-4.87-1.416-7.38-1.951l-1.715-25.991h-30.973
	l-0.721,10.908l-0.994,15.083c-9.989,2.137-19.307,6.063-27.582,11.455l-19.618-17.195l-14.251,14.263l-7.666,7.653l17.195,19.618
	c-5.392,8.274-9.318,17.593-11.455,27.582l-25.991,1.715v30.986l25.991,1.715c2.137,9.977,6.063,19.295,11.455,27.582
	l-17.195,19.605l18.251,18.264l3.665,3.653l19.618-17.183c7.529,4.895,15.928,8.598,24.91,10.821
	c0.882,0.224,1.777,0.435,2.671,0.621l1.715,26.004h30.973l1.715-26.004c9.989-2.125,19.307-6.063,27.594-11.443l15.878,13.903
	v0.012l3.727,3.268l21.916-21.916l-17.183-19.605c5.38-8.287,9.318-17.605,11.443-27.582L363.121,233.933z M255.988,254.346
	c-2.323,0-4.597-0.224-6.796-0.658c-16.574-3.168-29.097-17.742-29.097-35.247c0-19.829,16.077-35.906,35.893-35.906
	c4.411,0,8.635,0.795,12.524,2.249c13.667,5.081,23.382,18.226,23.382,33.657C291.893,238.269,275.829,254.346,255.988,254.346z"/>
<polygon style="fill:#C8EDFC;" points="512,75.427 512,361.469 218.976,361.469 299.174,75.427 "/>
<rect x="177.715" y="464.415" style="fill:#E6E6E6;" width="156.557" height="18.636"/>
<g>
	<rect y="69.836" style="fill:#B3B3B3;" width="512" height="11.182"/>
	<rect y="356.835" style="fill:#B3B3B3;" width="512" height="11.182"/>
</g>
<path style="fill:#999999;" d="M337.117,235.648c-2.125,9.977-6.063,19.295-11.443,27.582l17.183,19.605l-21.916,21.916
	l-3.727-3.268v-0.012l-15.878-13.903c-8.287,5.38-17.605,9.318-27.594,11.443l-1.715,26.004h-30.973l-1.715-26.004
	c-0.895-0.186-1.789-0.398-2.671-0.621l12.524-44.702c2.199,0.435,4.473,0.658,6.796,0.658c19.841,0,35.906-16.077,35.906-35.906
	c0-15.431-9.716-28.576-23.382-33.657l12.611-44.975c7.218,2.249,14.002,5.467,20.214,9.505l19.605-17.195l21.916,21.916
	l-17.183,19.618c5.38,8.275,9.318,17.593,11.443,27.582l26.004,1.715v30.986L337.117,235.648z"/>
<g>
</g>
<g>
</g>
<g>
</g>
<g>
</g>
<g>
</g>
<g>
</g>
<g>
</g>
<g>
</g>
<g>
</g>
<g>
</g>
<g>
</g>
<g>
</g>
<g>
</g>
<g>
</g>
<g>
</g>
</svg>
