<?xml version="1.0" encoding="UTF-8"?>
<!DOCTYPE svg PUBLIC "-//W3C//DTD SVG 1.1//EN" "http://www.w3.org/Graphics/SVG/1.1/DTD/svg11.dtd">
<!-- Creator: CorelDRAW X7 -->
<svg xmlns="http://www.w3.org/2000/svg" xml:space="preserve" width="2539px" height="1772px" version="1.1" style="shape-rendering:geometricPrecision; text-rendering:geometricPrecision; image-rendering:optimizeQuality; fill-rule:evenodd; clip-rule:evenodd"
viewBox="0 0 253900000 177139535"
 xmlns:xlink="http://www.w3.org/1999/xlink">
 <defs>
  <style type="text/css">
   <![CDATA[
    .fil0 {fill:white}
   ]]>
  </style>
 </defs>
 <g id="Layer_x0020_1">
  <metadata id="CorelCorpID_0Corel-Layer"/>
  <g id="_725959040">
   <path class="fil0" d="M152808711 91927743c-8493132,4308151 -19949808,5024031 -29456415,6285737 -12739285,2017265 -18554421,14453169 -13443355,22824547 6253261,10239610 22734560,7762609 31367042,2343792 12772823,-8019106 11385820,-18535763 11532728,-31454076zm-103390205 2722752l0 52167121 29445196 0 0 -35085555c0,-23740831 -2412286,-48239819 23040303,-53708944 3579163,-909906 7155374,-1545129 10730523,-1943456l0 -23005348c-35018125,295941 -63216022,13360454 -63216022,61576182zm65934405 -61700888c42150588,-1217894 59182200,13248502 59197434,36729528l14644 38839496c7085,16111786 -6876439,29579468 -22468733,35508093 -10345894,3929427 -34899441,3675173 -45748292,898924 -27365224,-6995359 -30873414,-55288202 1364092,-62759120 8538598,-2595213 26114619,-1550798 35325048,-6535741 6090057,-3293850 9098241,-11787573 1887717,-16118753 -2662643,-1598861 -6255860,-2556359 -10089986,-3088959l0 -14525c-6461814,-825352 -12926580,-1084330 -19390756,-592001 -176904,-7310194 135216,-15625124 -91168,-22866942zm54844053 825824l24700337 70412729c7332278,16557351 -2695473,21201241 -20609476,20434581l0 22093197 20039795 -284841c17161869,-240201 24875233,-14124279 29358752,-29242548l29353320 -88220685 -16720909 -187886c-7796265,-179029 -12499910,3721111 -14114714,11701838l-10771737 37331803 -12999090 -44018702 -28236278 -19486zm-169336656 -31824534l15902760 0c2864937,0 13323019,2239280 13323019,13666197l0 18218919 17085935 0c0,14720413 337156,23346046 -17085935,23346046l0 57523466c0,10889121 5553206,10099551 17085935,10099551l0 22012540 -29895721 0c-14073618,0 -16415993,-8509075 -16415993,-21018078l0 -123848641z"/>
   <path class="fil0" d="M6716186 170895366c-1199116,0 -2139845,-435645 -2821832,-1303511l-143365 0c96364,849089 143365,1340829 143365,1474628l0 4122155 -2781563 0 0 -14672231 2261245 0 392423 1325476 127895 0c653881,-1008042 1616339,-1512063 2896467,-1512063 1202187,0 2146105,463515 2828328,1393734 682105,930336 1021505,2221447 1021505,3876521 0,1085865 -158717,2031672 -479694,2834233 -317552,802796 -772565,1412510 -1364093,1832567 -588811,420057 -1283435,628491 -2080681,628491zm-822281 -8344335c-685412,0 -1189906,211623 -1504505,631680 -317553,423127 -482647,1119994 -495046,2093789l0 298657c0,1095195 164976,1876026 488669,2352059 327117,472963 841058,709385 1548199,709385 1248952,0 1872011,-1026701 1872011,-3080102 0,-1001783 -152813,-1751674 -461154,-2252388 -308104,-500951 -787916,-753080 -1448174,-753080zm9826993 8157630l-2781564 0 0 -14186987 2781564 0 0 14186987zm9400086 0l-538858 -1384522 -71565 0c-470246,591173 -953247,1001783 -1448411,1228876 -495282,227211 -1139952,342351 -1937434,342351 -980999,0 -1750375,-280116 -2314151,-840113 -563658,-559998 -844011,-1356417 -844011,-2389377 0,-1082676 380024,-1882284 1136764,-2395635 756976,-513232 1899999,-799371 3426233,-852277l1769151 -56094 0 -448045c0,-1032960 -529529,-1549263 -1588587,-1549263 -812952,0 -1772104,245752 -2871668,737137l-922070 -1872719c1174435,-612903 2476174,-917819 3906044,-917819 1367163,0 2417010,298539 3145762,892901 731941,594126 1096258,1499546 1096258,2716022l0 6788577 -1943457 0zm-822282 -4722658l-1074528 37318c-809882,24799 -1414046,167928 -1809658,438479 -395611,267717 -591764,675138 -591764,1222617 0,784020 451588,1176088 1351693,1176088 644906,0 1158847,-186587 1544893,-556808 386400,-370340 579364,-865032 579364,-1477816l0 -839878zm9926546 2687915c488905,0 1071458,-105811 1753563,-320504l0 2075131c-694623,311293 -1544893,466821 -2553998,466821 -1115152,0 -1924798,-280116 -2432480,-843302 -507682,-563068 -763353,-1406134 -763353,-2529316l0 -4915622 -1329728 0 0 -1179159 1532257 -930101 803741 -2150002 1778481 0 0 2168543 2856198 0 0 2090719 -2856198 0 0 4909363c0,395139 112071,687655 333141,874242 221070,189894 514059,283187 878376,283187zm10294287 2034743l-539095 -1384522 -71446 0c-470365,591173 -953129,1001783 -1448411,1228876 -495164,227211 -1139834,342351 -1937316,342351 -980999,0 -1750611,-280116 -2314387,-840113 -563540,-559998 -844011,-1356417 -844011,-2389377 0,-1082676 380141,-1882284 1136999,-2395635 756740,-513232 1899999,-799371 3426233,-852277l1769152 -56094 0 -448045c0,-1032960 -529647,-1549263 -1588588,-1549263 -813070,0 -1772340,245752 -2871786,737137l-921952 -1872719c1174435,-612903 2476175,-917819 3905809,-917819 1367281,0 2417010,298539 3145762,892901 732176,594126 1096493,1499546 1096493,2716022l0 6788577 -1943456 0zm-822282 -4722658l-1074647 37318c-809764,24799 -1414164,167928 -1809775,438479 -395376,267717 -591528,675138 -591528,1222617 0,784020 451351,1176088 1351693,1176088 644669,0 1158610,-186587 1544656,-556808 386519,-370340 579601,-865032 579601,-1477816l0 -839878zm11265838 -3378877l-2404610 0 0 8101535 -2784515 0 0 -8101535 -1532494 0 0 -1340829 1532494 -749890 0 -746703c0,-1160500 286375,-2006636 856646,-2538645 572988,-535080 1488681,-802679 2747198,-802679 959152,0 1812610,143011 2563327,429269l-713399 2037813c-557400,-177258 -1074529,-264292 -1547964,-264292 -395493,0 -682105,118211 -856647,351563 -177375,233233 -264646,531891 -264646,895853l0 637821 2404610 0 0 2090719zm3818774 2986808c0,1007924 164976,1770215 495282,2286517 332905,516539 871999,774809 1619528,774809 741152,0 1273869,-255081 1600987,-768432 323929,-513468 485717,-1278711 485717,-2292894 0,-1008042 -161788,-1764073 -492094,-2268094 -326999,-504021 -865858,-756032 -1613387,-756032 -741388,0 -1277058,252011 -1604175,752843 -329952,500951 -491858,1256982 -491858,2271283zm7048500 6141c0,1658262 -436117,2955632 -1311305,3891992 -875187,936478 -2096269,1403299 -3659702,1403299 -978047,0 -1840834,-214811 -2591434,-644079 -747765,-426198 -1320752,-1042171 -1722505,-1844967 -401988,-802561 -601211,-1739156 -601211,-2806245 0,-1667473 433047,-2961773 1301975,-3885733 872117,-924196 2093081,-1384522 3669269,-1384522 978046,0 1840834,211386 2591197,637820 747529,426080 1320516,1035912 1722623,1832331 401634,796420 601093,1729827 601093,2800104zm7995252 -5270255c376835,0 691435,27870 940729,80775l-208788 2607258c-227211,-59165 -498235,-90223 -822164,-90223 -887587,0 -1579022,226975 -2074304,684349 -495282,454186 -744340,1092124 -744340,1913461l0 5183221 -2781563 0 0 -10192254 2108669 0 408011 1717426 136988 0c317789,-569444 744341,-1029771 1283199,-1381334 535670,-348492 1121529,-522679 1753563,-522679zm11932592 10378841l-2784516 0 0 -5951652c0,-734302 -124706,-1288159 -370694,-1655310 -246106,-367033 -632388,-550668 -1161799,-550668 -713400,0 -1230293,261340 -1551270,784020 -323929,522680 -485716,1381570 -485716,2579270l0 4794340 -2781563 0 0 -10192254 2124375 0 373646 1306699 155765 0c273976,-466586 669706,-833737 1186717,-1098265 516893,-264292 1112082,-395021 1781551,-395021 1526471,0 2560375,497644 3102304,1493286l245988 0c274212,-472963 676082,-839878 1208564,-1101217 532599,-261340 1133811,-392069 1803398,-392069 1155658,0 2030846,295468 2622610,889713 594953,591173 890776,1540169 890776,2846632l0 6642496 -2793963 0 0 -5951652c0,-734302 -121400,-1288159 -367506,-1655310 -249176,-367033 -635222,-550668 -1164751,-550668 -682224,0 -1189905,242800 -1529423,728162 -336329,488315 -504493,1259934 -504493,2314741l0 5114727zm15694917 0l-538859 -1384522 -71446 0c-470364,591173 -953365,1001783 -1448647,1228876 -495046,227211 -1139598,342351 -1937316,342351 -980763,0 -1750375,-280116 -2314151,-840113 -563540,-559998 -844011,-1356417 -844011,-2389377 0,-1082676 380024,-1882284 1137000,-2395635 756740,-513232 1899998,-799371 3425997,-852277l1769387 -56094 0 -448045c0,-1032960 -529647,-1549263 -1588823,-1549263 -812835,0 -1772104,245752 -2871550,737137l-921952 -1872719c1174198,-612903 2476174,-917819 3905808,-917819 1367281,0 2417010,298539 3145762,892901 731941,594126 1096494,1499546 1096494,2716022l0 6788577 -1943693 0zm-822046 -4722658l-1074764 37318c-809764,24799 -1414164,167928 -1809658,438479 -395375,267717 -591528,675138 -591528,1222617 0,784020 451352,1176088 1351457,1176088 644906,0 1158847,-186587 1544893,-556808 386282,-370340 579600,-865032 579600,-1477816l0 -839878zm13717095 4909363c-1195928,0 -2139845,-463633 -2825139,-1393970 -685176,-930100 -1024693,-2218259 -1024693,-3867192 0,-1670662 345658,-2971102 1043470,-3904510 697693,-933171 1656963,-1399874 2881233,-1399874 1282963,0 2264198,497644 2940162,1496474l90223 0c-139940,-762408 -208552,-1440616 -208552,-2037813l0 -3266807 2790538 0 0 14186987 -2133232 0 -538977 -1316028 -118329 0c-635458,1001783 -1597917,1502733 -2896704,1502733zm978047 -2221448c713164,0 1233245,-205481 1566622,-619161 330070,-413680 510870,-1113854 541929,-2106307l0 -298658c0,-1095076 -168283,-1875907 -507682,-2352058 -336447,-472727 -884517,-709149 -1647634,-709149 -619752,0 -1102635,261340 -1448175,786972 -342706,525750 -514059,1291229 -514059,2293012 0,1001783 174542,1751556 520082,2252388 345894,500951 844129,752961 1488917,752961zm11845202 -6365450c-591764,0 -1052681,186705 -1389246,559997 -333140,373411 -526222,902231 -576176,1586816l3908997 0c-12399,-684585 -190011,-1213405 -538858,-1586816 -345540,-373292 -816023,-559997 -1404717,-559997zm392542 8586898c-1644564,0 -2927763,-454422 -3853021,-1359605 -925141,-905419 -1385822,-2187201 -1385822,-3845463 0,-1707979 426552,-3027196 1280128,-3960604 856411,-933171 2036987,-1399874 3547515,-1399874 1442152,0 2563563,410609 3367068,1228758 803505,821573 1205375,1950778 1205375,3397418l0 1347205 -6581442 0c31295,790278 264765,1409322 701000,1854179 438952,444974 1055752,665808 1846739,665808 613611,0 1196164,-65305 1744234,-192846 545236,-127540 1118223,-329834 1716364,-609714l0 2152836c-489023,242681 -1009105,426197 -1563788,544408 -551258,118212 -1227104,177494 -2024350,177494zm15505023 -8586898c-591764,0 -1052563,186705 -1389128,559997 -333259,373411 -526223,902231 -576176,1586816l3908761 0c-12400,-684585 -189775,-1213405 -538622,-1586816 -345777,-373292 -816141,-559997 -1404835,-559997zm392423 8586898c-1644445,0 -2927762,-454422 -3852785,-1359605 -925140,-905419 -1386057,-2187201 -1386057,-3845463 0,-1707979 426552,-3027196 1280128,-3960604 856411,-933171 2036986,-1399874 3547751,-1399874 1441915,0 2563445,410609 3366832,1228758 803741,821573 1205493,1950778 1205493,3397418l0 1347205 -6581442 0c31176,790278 264883,1409322 700882,1854179 439188,444974 1055870,665808 1846975,665808 613493,0 1196164,-65305 1744234,-192846 544999,-127540 1117986,-329834 1716246,-609714l0 2152836c-489023,242681 -1009223,426197 -1563670,544408 -551258,118212 -1227105,177494 -2024587,177494zm5519314 -4050827l0 -2277424 4902514 0 0 2277424 -4902514 0zm11057404 4050827c-3174222,0 -4759385,-1742344 -4759385,-5223608 0,-1733134 429858,-3055421 1292646,-3970052 865976,-914512 2102410,-1371886 3712727,-1371886 1180458,0 2239516,230163 3176820,690726l-822045 2149647c-439425,-174187 -844247,-320268 -1221082,-432457 -376953,-111834 -753788,-167928 -1130623,-167928 -1448411,0 -2170786,1026583 -2170786,3079984 0,1991285 722375,2986809 2170786,2986809 532600,0 1027764,-71564 1485728,-214693 454659,-143129 912505,-367151 1367281,-668997l0 2383235c-448399,286258 -903175,485363 -1364092,594126 -457965,109000 -1037211,165094 -1737975,165094zm7687029 -5301432c0,1007924 164976,1770215 495164,2286517 333259,516539 872117,774809 1619646,774809 741152,0 1273869,-255081 1600987,-768432 323811,-513468 485717,-1278711 485717,-2292894 0,-1008042 -161906,-1764073 -492094,-2268094 -327000,-504021 -865976,-756032 -1613387,-756032 -741270,0 -1276940,252011 -1603939,752843 -330306,500951 -492094,1256982 -492094,2271283zm7048382 6141c0,1658262 -435999,2955632 -1311187,3891992 -875187,936478 -2096269,1403299 -3659702,1403299 -978047,0 -1840835,-214811 -2591552,-644079 -747529,-426198 -1320634,-1042171 -1722387,-1844967 -401870,-802561 -600975,-1739156 -600975,-2806245 0,-1667473 432811,-2961773 1301739,-3885733 871999,-924196 2093081,-1384522 3669151,-1384522 978046,0 1840834,211386 2591315,637820 747529,426080 1320752,1035912 1722623,1832331 401634,796420 600975,1729827 600975,2800104zm11440380 5108586l-2784634 0 0 -5951652c0,-734302 -124470,-1288159 -370576,-1655310 -245987,-367033 -632270,-550668 -1161917,-550668 -713282,0 -1230293,261340 -1551034,784020 -323929,522680 -485716,1381570 -485716,2579270l0 4794340 -2781563 0 0 -10192254 2124257 0 373646 1306699 155765 0c274094,-466586 669706,-833737 1186835,-1098265 517011,-264292 1111846,-395021 1781433,-395021 1526353,0 2560493,497644 3102304,1493286l245988 0c274094,-472963 675964,-839878 1208564,-1101217 532481,-261340 1133811,-392069 1803516,-392069 1155423,0 2030728,295468 2622610,889713 594717,591173 890658,1540169 890658,2846632l0 6642496 -2793845 0 0 -5951652c0,-734302 -121518,-1288159 -367505,-1655310 -249295,-367033 -635341,-550668 -1164988,-550668 -682105,0 -1189787,242800 -1529305,728162 -336329,488315 -504493,1259934 -504493,2314741l0 5114727zm18351892 0l-2784516 0 0 -5951652c0,-734302 -124706,-1288159 -370694,-1655310 -246105,-367033 -632388,-550668 -1161799,-550668 -713400,0 -1230293,261340 -1551270,784020 -323929,522680 -485716,1381570 -485716,2579270l0 4794340 -2781563 0 0 -10192254 2124375 0 373646 1306699 155765 0c273976,-466586 669706,-833737 1186953,-1098265 516775,-264292 1111846,-395021 1781315,-395021 1526471,0 2560493,497644 3102422,1493286l245870 0c274212,-472963 676082,-839878 1208564,-1101217 532599,-261340 1133811,-392069 1803398,-392069 1155659,0 2030846,295468 2622610,889713 594953,591173 890776,1540169 890776,2846632l0 6642496 -2793727 0 0 -5951652c0,-734302 -121636,-1288159 -367741,-1655310 -249059,-367033 -635223,-550668 -1164752,-550668 -682223,0 -1189905,242800 -1529423,728162 -336329,488315 -504493,1259934 -504493,2314741l0 5114727zm13443001 -8400193c-591764,0 -1052681,186705 -1389246,559997 -333141,373411 -526223,902231 -576176,1586816l3909115 0c-12518,-684585 -190130,-1213405 -538858,-1586816 -345895,-373292 -816023,-559997 -1404835,-559997zm392541 8586898c-1644563,0 -2927762,-454422 -3852903,-1359605 -925140,-905419 -1386057,-2187201 -1386057,-3845463 0,-1707979 426788,-3027196 1280246,-3960604 856411,-933171 2036987,-1399874 3547632,-1399874 1442034,0 2563446,410609 3366951,1228758 803623,821573 1205493,1950778 1205493,3397418l0 1347205 -6581442 0c31177,790278 264646,1409322 700882,1854179 438952,444974 1055870,665808 1846739,665808 613729,0 1196164,-65305 1744352,-192846 545117,-127540 1118105,-329834 1716246,-609714l0 2152836c-488905,242681 -1008987,426197 -1563670,544408 -551376,118212 -1227223,177494 -2024469,177494zm12113038 -10565546c376953,0 691435,27870 940729,80775l-208670 2607258c-227330,-59165 -498353,-90223 -822282,-90223 -887587,0 -1579022,226975 -2074304,684349 -495282,454186 -744340,1092124 -744340,1913461l0 5183221 -2781564 0 0 -10192254 2108669 0 408012 1717426 136988 0c317788,-569444 744340,-1029771 1283199,-1381334 535670,-348492 1121529,-522679 1753563,-522679zm6936548 10565546c-3173986,0 -4759149,-1742344 -4759149,-5223608 0,-1733134 429622,-3055421 1292410,-3970052 865976,-914512 2102410,-1371886 3712845,-1371886 1180576,0 2239516,230163 3176938,690726l-822281 2149647c-439188,-174187 -844247,-320268 -1221082,-432457 -376717,-111834 -753552,-167928 -1130387,-167928 -1448647,0 -2171022,1026583 -2171022,3079984 0,1991285 722375,2986809 2171022,2986809 532600,0 1027764,-71564 1485492,-214693 454777,-143129 912741,-367151 1367518,-668997l0 2383235c-448400,286258 -903176,485363 -1364329,594126 -457729,109000 -1037211,165094 -1737975,165094zm9696028 -8586898c-591765,0 -1052682,186705 -1389247,559997 -333140,373411 -526222,902231 -576176,1586816l3908879 0c-12517,-684585 -189893,-1213405 -538740,-1586816 -345776,-373292 -815905,-559997 -1404716,-559997zm392305 8586898c-1644328,0 -2927526,-454422 -3852667,-1359605 -925259,-905419 -1386058,-2187201 -1386058,-3845463 0,-1707979 426670,-3027196 1280246,-3960604 856411,-933171 2036751,-1399874 3547633,-1399874 1441798,0 2563445,410609 3366714,1228758 803859,821573 1205494,1950778 1205494,3397418l0 1347205 -6581443 0c31413,790278 264883,1409322 701119,1854179 438951,444974 1055751,665808 1846738,665808 613612,0 1196164,-65305 1744234,-192846 544999,-127540 1118223,-329834 1716364,-609714l0 2152836c-489141,242681 -1009223,426197 -1563670,544408 -551376,118212 -1227222,177494 -2024704,177494z"/>
  </g>
 </g>
</svg>
