<?xml version="1.0" encoding="iso-8859-1"?>
<!-- Generator: Adobe Illustrator 19.0.0, SVG Export Plug-In . SVG Version: 6.00 Build 0)  -->
<svg version="1.1" id="Layer_1" xmlns="http://www.w3.org/2000/svg" xmlns:xlink="http://www.w3.org/1999/xlink" x="0px" y="0px"
	 viewBox="0 0 512 512" style="enable-background:new 0 0 512 512;" xml:space="preserve">
<path style="fill:#CCCCCC;" d="M486.566,116.128v248.515H25.434V116.128c0-18.021,14.603-32.624,32.612-32.624h395.895
	C471.962,83.504,486.566,98.108,486.566,116.128z"/>
<path style="fill:#E6E6E6;" d="M486.566,116.128v248.515H214.602l78.822-281.139h160.517
	C471.962,83.504,486.566,98.108,486.566,116.128z"/>
<rect x="25.434" y="124.346" style="fill:#9BD7F4;" width="461.131" height="252.583"/>
<path style="fill:#CCCCCC;" d="M512,364.643V389.9c0,21.32-17.287,38.595-38.607,38.595H38.595C17.276,428.496,0,411.22,0,389.9
	v-25.257H512z"/>
<polygon style="fill:#C8EDFC;" points="486.566,124.346 486.566,364.643 214.602,364.643 281.978,124.346 "/>
<path style="fill:#E6E6E6;" d="M512,364.643v5.747c0,21.32-17.287,38.595-38.607,38.595H254.321l12.428-44.342H512z"/>
<path style="fill:#999999;" d="M295.438,396.569h-78.883c-12.501,0-22.634-10.134-22.634-22.634v-9.292h124.151v9.292
	C318.071,386.436,307.938,396.569,295.438,396.569z"/>
<g>
	<path style="fill:#61BCE0;" d="M208.738,159.843c-18.245,0-33.109,14.863-33.109,33.109v86.319
		c0,18.257,14.863,33.109,33.109,33.109c9.022,0,17.216-3.63,23.188-9.495c6.125-6.019,9.921-14.379,9.921-23.613v-86.319
		C241.846,174.707,226.995,159.843,208.738,159.843z M224.109,279.271c0,8.478-6.894,15.372-15.372,15.372
		c-8.466,0-15.372-6.894-15.372-15.372v-86.319c0-8.466,6.905-15.372,15.372-15.372c8.478,0,15.372,6.906,15.372,15.372V279.271z"/>
	<polygon style="fill:#61BCE0;" points="381.221,177.58 381.221,227.408 409.706,227.408 409.706,245.145 381.221,245.145 
		381.221,294.642 429.702,294.642 429.702,312.379 363.485,312.379 363.485,159.843 429.702,159.843 429.702,177.58 	"/>
	<path style="fill:#61BCE0;" d="M115.395,159.849c-18.256,0-33.109,14.853-33.109,33.109v86.319
		c0,18.256,14.853,33.109,33.109,33.109s33.109-14.853,33.109-33.109v-8.868h-17.737v8.868c0,8.476-6.896,15.372-15.372,15.372
		s-15.372-6.896-15.372-15.372v-86.319c0-8.476,6.896-15.372,15.372-15.372s15.372,6.896,15.372,15.372v8.868h17.737v-8.868
		C148.504,174.701,133.652,159.849,115.395,159.849z"/>
	<path style="fill:#61BCE0;" d="M302.092,159.843h-33.109v152.536h33.109c18.257,0,33.109-14.852,33.109-33.109v-86.319
		C335.2,174.707,320.349,159.843,302.092,159.843z M317.464,279.271c0,8.478-6.894,15.372-15.372,15.372H286.72V177.58h15.372
		c8.478,0,15.372,6.906,15.372,15.372V279.271z"/>
</g>
<rect x="25.426" y="119.025" style="fill:#B3B3B3;" width="461.143" height="10.642"/>
<g>
	<path style="fill:#9BD7F4;" d="M231.925,302.884l9.921-35.402v11.789C241.846,288.505,238.05,296.865,231.925,302.884z"/>
	<path style="fill:#9BD7F4;" d="M302.092,159.843h-30.07l-3.039,10.855v141.681h33.109c18.257,0,33.109-14.852,33.109-33.109
		v-86.319C335.2,174.707,320.349,159.843,302.092,159.843z M317.464,279.271c0,8.478-6.894,15.372-15.372,15.372H286.72V177.58
		h15.372c8.478,0,15.372,6.906,15.372,15.372V279.271z"/>
	<polygon style="fill:#9BD7F4;" points="381.221,177.58 381.221,227.408 409.706,227.408 409.706,245.145 381.221,245.145 
		381.221,294.642 429.702,294.642 429.702,312.379 363.485,312.379 363.485,159.843 429.702,159.843 429.702,177.58 	"/>
</g>
<g>
</g>
<g>
</g>
<g>
</g>
<g>
</g>
<g>
</g>
<g>
</g>
<g>
</g>
<g>
</g>
<g>
</g>
<g>
</g>
<g>
</g>
<g>
</g>
<g>
</g>
<g>
</g>
<g>
</g>
</svg>
