<?xml version="1.0" encoding="iso-8859-1"?>
<!-- Generator: Adobe Illustrator 19.0.0, SVG Export Plug-In . SVG Version: 6.00 Build 0)  -->
<svg version="1.1" id="Layer_1" xmlns="http://www.w3.org/2000/svg" xmlns:xlink="http://www.w3.org/1999/xlink" x="0px" y="0px"
	 viewBox="0 0 512 512" style="enable-background:new 0 0 512 512;" xml:space="preserve">
<polygon style="fill:#CCCCCC;" points="303.995,473.732 207.993,473.732 216.031,440.249 223.797,407.946 288.203,407.946 
	295.956,440.249 "/>
<polygon style="fill:#999999;" points="295.956,440.249 216.031,440.249 223.797,407.946 249.925,375.918 288.203,407.946 "/>
<path style="fill:#CCCCCC;" d="M512,62.829v311.238c0,18.711-15.17,33.881-33.881,33.881H33.881C15.17,407.946,0,392.778,0,374.067
	V62.829c0-18.711,15.17-33.881,33.881-33.881h444.239C496.83,28.947,512,44.118,512,62.829z"/>
<path style="fill:#E6E6E6;" d="M512,62.829v311.238c0,18.711-15.17,33.881-33.881,33.881H205.943L312.207,28.948h165.912
	C496.83,28.947,512,44.118,512,62.829z"/>
<rect y="75.427" style="fill:#9BD7F4;" width="512" height="286.042"/>
<polygon style="fill:#C8EDFC;" points="512,75.427 512,361.469 218.976,361.469 299.174,75.427 "/>
<rect x="177.715" y="464.415" style="fill:#E6E6E6;" width="156.557" height="18.636"/>
<g>
	<rect y="69.836" style="fill:#B3B3B3;" width="512" height="11.182"/>
	<rect y="356.835" style="fill:#B3B3B3;" width="512" height="11.182"/>
</g>
<rect x="31.359" y="100.63" style="fill:#F9C573;" width="112.575" height="112.575"/>
<rect x="161.191" y="100.636" style="fill:#E6E6E6;" width="112.575" height="112.575"/>
<rect x="161.191" y="225.499" style="fill:#F9C573;" width="112.575" height="112.575"/>
<rect x="291.024" y="225.499" style="fill:#FFFFFF;" width="189.232" height="112.575"/>
<g>
	<polygon style="fill:#F94B54;" points="143.934,330.421 143.934,231.896 94.672,281.158 	"/>
	<polygon style="fill:#F94B54;" points="136.293,225.499 39.012,225.499 87.653,274.138 	"/>
	<polygon style="fill:#F94B54;" points="31.359,231.896 31.359,330.421 80.62,281.158 	"/>
	<polygon style="fill:#F94B54;" points="37.769,338.073 137.536,338.073 87.653,288.191 	"/>
</g>
<g>
	<polygon style="fill:#F98791;" points="291.024,106.412 291.024,207.422 375.918,156.916 	"/>
	<polygon style="fill:#F98791;" points="470.516,100.636 300.764,100.636 385.646,151.128 	"/>
	<polygon style="fill:#F98791;" points="385.634,162.707 300.739,213.21 470.541,213.21 385.646,162.707 	"/>
	<polygon style="fill:#F98791;" points="480.256,207.422 480.256,106.412 395.362,156.916 	"/>
</g>
<polygon style="fill:#FCD8A9;" points="273.767,225.499 273.767,338.073 225.536,338.073 257.093,225.499 "/>
<polygon style="fill:#FFFFFF;" points="273.767,166.048 273.767,213.21 260.547,213.21 "/>
<g>
</g>
<g>
</g>
<g>
</g>
<g>
</g>
<g>
</g>
<g>
</g>
<g>
</g>
<g>
</g>
<g>
</g>
<g>
</g>
<g>
</g>
<g>
</g>
<g>
</g>
<g>
</g>
<g>
</g>
</svg>
